<?xml version="1.0" encoding="UTF-8"?>
<svg xmlns="http://www.w3.org/2000/svg" viewBox="0 0 120 32" width="120" height="32" overflow="visible">
  <svg x="0" y="-5" width="42" height="42" viewBox="70 60 880 880" preserveAspectRatio="xMidYMid meet" overflow="visible">
    <g transform="translate(0,1024) scale(0.1,-0.1)" fill="#09090B">
      <path d="M3958 7293 l-3 -58 -1497 -5 c-1404 -5 -1498 -6 -1515 -22 -31 -32 -22 -81 30 -155 240 -352 819 -704 1507 -916 394 -122 741 -191 1264 -252 243 -29 262 -33 318 -74 124 -91 198 -248 198 -421 0 -154 -50 -284 -163 -425 -183 -227 -521 -450 -1207 -797 -227 -115 -319 -167 -332 -186 -16 -25 -18 -61 -18 -433 0 -398 0 -406 21 -428 11 -12 32 -26 46 -32 35 -13 1217 -12 1265 1 21 6 58 28 83 50 112 97 341 216 562 293 483 167 1015 197 1523 86 319 -70 624 -198 814 -342 136 -103 49 -92 741 -95 424 -2 621 0 648 8 66 19 65 11 68 456 4 471 12 436 -114 492 -147 65 -476 231 -610 309 -327 188 -524 330 -672 484 -166 173 -235 317 -235 489 0 160 53 273 195 416 217 220 607 410 1175 574 207 59 527 136 715 171 94 17 194 40 222 51 132 49 238 154 284 280 19 56 23 87 27 270 l4 208 -30 30 -30 30 -2641 0 -2640 0 -3 -57z"/>
    </g>
  </svg>
  <text x="48" y="22" font-family="Inter, -apple-system, sans-serif" font-size="20" font-weight="600" fill="#09090B">Moru</text>
</svg>
